<svg width="25" height="25" viewBox="0 0 25 25" fill="none" xmlns="http://www.w3.org/2000/svg">
<path d="M0.75 0.75H2.83798C4.13396 0.75 5.15395 1.86599 5.04595 3.14997L4.04996 15.1018C3.88196 17.0578 5.42993 18.7378 7.39791 18.7378H20.1778C21.9057 18.7378 23.4177 17.3218 23.5497 15.6058L24.1977 6.60593C24.3417 4.61396 22.8297 2.99397 20.8257 2.99397H5.33395" stroke="#818189" stroke-width="1.5" stroke-miterlimit="10" stroke-linecap="round" stroke-linejoin="round"/>
<path d="M9.14844 7.94922H23.5483" stroke="#818189" stroke-width="1.5" stroke-miterlimit="10" stroke-linecap="round" stroke-linejoin="round"/>
<path d="M20.7245 22.6042C20.7245 21.4209 19.7645 20.4609 18.5812 20.4609C17.398 20.4609 16.438 21.4209 16.438 22.6042C16.438 23.7874 17.398 24.7474 18.5812 24.7474C19.7645 24.7474 20.7245 23.7874 20.7245 22.6042Z" fill="#818189"/>
<path d="M11.3255 22.6042C11.3255 21.4209 10.3655 20.4609 9.18229 20.4609C7.99905 20.4609 7.03906 21.4209 7.03906 22.6042C7.03906 23.7874 7.99905 24.7474 9.18229 24.7474C10.3655 24.7474 11.3255 23.7874 11.3255 22.6042Z" fill="#818189"/>
</svg>
