<svg width="18" height="18" viewBox="0 0 18 18" fill="none" xmlns="http://www.w3.org/2000/svg">
<path d="M16.7498 9.07598C16.7512 11.1265 15.9695 13.177 14.4068 14.7398C11.9619 17.185 8.34158 17.7133 5.37889 16.3431C4.94152 16.167 4.58294 16.0247 4.24205 16.0247C3.29255 16.0304 2.11069 16.951 1.49644 16.3375C0.882199 15.7232 1.80357 14.5404 1.80357 13.5852C1.80357 13.2442 1.66689 12.8921 1.49082 12.4538C0.12002 9.49162 0.649043 5.87007 3.09396 3.42569C4.65433 1.86474 6.70202 1.08419 8.74976 1.08392" stroke="#818189" stroke-width="1.5" stroke-linecap="round" stroke-linejoin="round"/>
<path d="M10.7498 3.41667V2.75C10.7498 1.64667 11.0831 0.75 12.7498 0.75C14.4164 0.75 14.7498 1.64667 14.7498 2.75V3.41667" stroke="#818189" stroke-width="1.5" stroke-linecap="round" stroke-linejoin="round"/>
<path d="M14.4165 7.41687H11.0832C9.74984 7.41687 9.4165 7.08354 9.4165 5.7502V5.08354C9.4165 3.7502 9.74984 3.41687 11.0832 3.41687H14.4165C15.7498 3.41687 16.0832 3.7502 16.0832 5.08354V5.7502C16.0832 7.08354 15.7498 7.41687 14.4165 7.41687Z" stroke="#818189" stroke-width="1.5" stroke-linecap="round" stroke-linejoin="round"/>
<path d="M14.0821 5.41667H14.0851" stroke="#818189" stroke-linecap="round" stroke-linejoin="round"/>
<path d="M12.7483 5.41667H12.7513" stroke="#818189" stroke-linecap="round" stroke-linejoin="round"/>
<path d="M11.4146 5.41667H11.4176" stroke="#818189" stroke-linecap="round" stroke-linejoin="round"/>
<path d="M11.903 9.41508H11.9102" stroke="#818189" stroke-width="2" stroke-linecap="round" stroke-linejoin="round"/>
<path d="M8.69604 9.41547H8.70479" stroke="#818189" stroke-width="2" stroke-linecap="round" stroke-linejoin="round"/>
<path d="M5.48307 9.41508H5.49027" stroke="#818189" stroke-width="2" stroke-linecap="round" stroke-linejoin="round"/>
</svg>
