<svg width="20" height="13" viewBox="0 0 20 13" fill="none" xmlns="http://www.w3.org/2000/svg">
<path d="M1.64927 7.88064C3.36259 9.50225 6.35059 11.75 9.75006 11.75C13.1495 11.75 16.1372 9.50225 17.8506 7.88064L17.8514 7.87987C18.303 7.45238 18.5292 7.23838 18.673 6.81856C18.7757 6.51897 18.7757 5.98105 18.673 5.68145C18.5291 5.26161 18.303 5.04759 17.8513 4.62004L17.8506 4.61936C16.1372 2.99775 13.1495 0.75 9.75006 0.75C6.35059 0.75 3.36259 2.99775 1.64927 4.61936C1.19705 5.04736 0.970929 5.26139 0.826993 5.68145C0.724336 5.98105 0.724336 6.51897 0.826993 6.81856C0.970922 7.23861 1.19703 7.45262 1.6492 7.88058L1.64927 7.88064Z" stroke="#818189" stroke-width="1.5" stroke-linecap="round" stroke-linejoin="round"/>
</svg>
