<svg width="24" height="24" viewBox="0 0 24 24" fill="none" xmlns="http://www.w3.org/2000/svg">
<path fill-rule="evenodd" clip-rule="evenodd" d="M19.5282 19.5268C16.1665 22.889 11.1885 23.6154 7.11481 21.7314C6.51343 21.4893 6.02039 21.2936 5.55167 21.2936C4.24609 21.3013 2.62104 22.5673 1.77645 21.7237C0.931865 20.879 2.19874 19.2527 2.19874 17.9392C2.19874 17.4704 2.01081 16.9862 1.76871 16.3836C-0.11613 12.3106 0.611276 7.33096 3.97304 3.96993C8.26451 -0.323125 15.2368 -0.323125 19.5282 3.96882C23.8275 8.26851 23.8197 15.2349 19.5282 19.5268Z" stroke="#818189" stroke-width="1.5" stroke-linecap="round" stroke-linejoin="round"/>
<path d="M16.0839 12.2062H16.0938" stroke="#818189" stroke-width="2" stroke-linecap="round" stroke-linejoin="round"/>
<path d="M11.6794 12.2031H11.6884" stroke="#818189" stroke-width="2" stroke-linecap="round" stroke-linejoin="round"/>
<path d="M7.25965 12.2062H7.26955" stroke="#818189" stroke-width="2" stroke-linecap="round" stroke-linejoin="round"/>
</svg>
