<svg width="24" height="24" viewBox="0 0 24 24" fill="none" xmlns="http://www.w3.org/2000/svg">
<path d="M8.45 22.75H15.05C20.55 22.75 22.75 20.55 22.75 15.05V8.45C22.75 2.95 20.55 0.75 15.05 0.75H8.45C2.95 0.75 0.75 2.95 0.75 8.45V15.05C0.75 20.55 2.95 22.75 8.45 22.75Z" stroke="#818189" stroke-width="1.5" stroke-linecap="round" stroke-linejoin="round"/>
<path d="M8.5625 11.7518V10.1238C8.5625 8.0228 10.0475 7.1758 11.8625 8.2208L13.2705 9.0348L14.6785 9.8488C16.4935 10.8938 16.4935 12.6098 14.6785 13.6548L13.2705 14.4688L11.8625 15.2828C10.0475 16.3278 8.5625 15.4698 8.5625 13.3798V11.7518Z" stroke="#818189" stroke-width="1.5" stroke-miterlimit="10" stroke-linecap="round" stroke-linejoin="round"/>
</svg>
