<svg width="15" height="18" viewBox="0 0 15 18" fill="none" xmlns="http://www.w3.org/2000/svg">
<path d="M13.75 6.35L12.9416 15.4268C12.8754 15.7975 12.6787 16.1334 12.386 16.3754C12.0932 16.6174 11.7232 16.75 11.3409 16.75H3.15906C2.77682 16.75 2.40679 16.6174 2.11404 16.3754C1.8213 16.1334 1.62457 15.7975 1.55844 15.4268L0.75 6.35M13.75 3.95H9.99219M9.99219 3.95V2.35C9.99219 1.92565 9.82098 1.51869 9.51624 1.21863C9.21149 0.918571 8.79816 0.75 8.36719 0.75H6.13281C5.70184 0.75 5.28851 0.918571 4.98376 1.21863C4.67902 1.51869 4.50781 1.92565 4.50781 2.35V3.95M9.99219 3.95H7.25H4.50781M0.75 3.95H4.50781" stroke="#818189" stroke-width="1.5" stroke-linecap="round" stroke-linejoin="round"/>
</svg>
